<svg xmlns="http://www.w3.org/2000/svg" xmlns:xlink="http://www.w3.org/1999/xlink" width="1600" zoomAndPan="magnify" viewBox="0 0 1200 361.499994" height="482" preserveAspectRatio="xMidYMid meet" version="1.2"><defs><clipPath id="62a04da69a"><path d="M 1027.960938 0 L 1191.183594 0 L 1191.183594 214 L 1027.960938 214 Z M 1027.960938 0 "/></clipPath><clipPath id="a68a6c4c69"><path d="M 5.488281 0 L 845.828125 0 L 845.828125 214.953125 L 5.488281 214.953125 Z M 5.488281 0 "/></clipPath><clipPath id="027614a8b2"><path d="M 378 196 L 796 196 L 796 360.964844 L 378 360.964844 Z M 378 196 "/></clipPath></defs><g id="3ca0fe84dd"><g clip-rule="nonzero" clip-path="url(#62a04da69a)"><path style=" stroke:none;fill-rule:evenodd;fill:#ffffff;fill-opacity:1;" d="M 685.480469 39.394531 L 685.480469 12.207031 C 685.480469 8.089844 688.628906 5.316406 692.371094 5.316406 L 814.304688 5.316406 C 818.199219 5.316406 821.34375 8.164062 821.34375 12.207031 L 821.34375 35.5 C 821.269531 39.394531 818.046875 44.488281 812.207031 52.578125 L 748.992188 142.753906 C 772.4375 142.152344 797.226562 145.671875 818.496094 157.65625 C 823.292969 160.351562 824.640625 164.324219 825.015625 168.292969 L 825.015625 197.277344 C 825.015625 201.246094 820.59375 205.890625 816.027344 203.492188 C 778.503906 183.871094 728.695312 181.699219 687.203125 203.71875 C 683.011719 206.039062 678.589844 201.394531 678.589844 197.425781 L 678.589844 169.863281 C 678.589844 165.445312 678.667969 157.882812 683.085938 151.140625 L 756.257812 46.210938 L 692.523438 46.210938 C 688.628906 46.210938 685.480469 43.515625 685.480469 39.394531 Z M 203.746094 209.261719 C 200.226562 208.960938 197.382812 206.339844 197.082031 202.894531 L 197.082031 12.65625 C 197.082031 8.835938 200.304688 5.84375 204.273438 5.84375 L 238.875 5.84375 C 242.46875 5.992188 245.316406 8.761719 245.539062 12.207031 L 245.539062 37.074219 L 246.289062 37.074219 C 255.277344 13.03125 272.203125 1.796875 295.046875 1.796875 C 318.265625 1.796875 332.792969 13.03125 343.207031 37.074219 C 352.191406 13.03125 372.566406 1.796875 394.433594 1.796875 C 410.011719 1.796875 427.015625 8.238281 437.351562 22.617188 C 449.109375 38.648438 446.710938 61.863281 446.710938 82.3125 L 446.636719 202.371094 C 446.636719 206.191406 443.492188 209.261719 439.523438 209.261719 L 402.449219 209.261719 C 398.777344 208.960938 395.78125 206.039062 395.78125 202.371094 L 395.78125 101.484375 C 395.78125 93.472656 396.53125 73.472656 394.734375 65.832031 C 391.960938 53.101562 383.722656 49.507812 372.9375 49.507812 C 363.953125 49.507812 354.589844 55.5 350.769531 65.085938 C 346.949219 74.671875 347.324219 90.699219 347.324219 101.484375 L 347.324219 202.371094 C 347.324219 206.191406 344.179688 209.261719 340.210938 209.261719 L 303.136719 209.261719 C 299.390625 208.960938 296.46875 206.039062 296.46875 202.371094 L 296.46875 101.484375 C 296.46875 80.289062 299.914062 49.058594 273.550781 49.058594 C 246.964844 49.058594 247.9375 79.539062 247.9375 101.484375 L 247.9375 202.371094 C 247.9375 206.191406 244.792969 209.261719 240.820312 209.261719 Z M 1011.132812 109.125 C 1011.132812 167.167969 978.25 213.230469 926.347656 213.230469 C 872.273438 213.230469 842.839844 165.96875 842.839844 107.101562 C 842.839844 47.859375 872.648438 1.796875 926.347656 1.796875 C 981.324219 1.796875 1011.132812 49.058594 1011.132812 109.125 Z M 897.589844 101.109375 C 897.589844 124.328125 897.214844 173.984375 926.347656 173.984375 C 955.035156 173.984375 956.382812 133.914062 956.382812 109.574219 C 956.382812 93.472656 955.707031 74.296875 950.914062 59.09375 C 946.71875 45.835938 938.40625 40.667969 926.648438 40.667969 C 899.3125 40.667969 897.589844 77.890625 897.589844 101.109375 Z M 1045.582031 209.261719 C 1041.839844 208.960938 1038.917969 206.039062 1038.917969 202.371094 L 1038.84375 12.058594 C 1039.140625 8.539062 1042.214844 5.84375 1045.957031 5.84375 L 1080.335938 5.84375 C 1083.554688 5.992188 1086.253906 8.164062 1087 11.160156 L 1087 40.21875 L 1087.675781 40.21875 C 1098.011719 14.230469 1112.617188 1.796875 1138.230469 1.796875 C 1154.859375 1.796875 1171.035156 7.789062 1181.519531 24.265625 C 1191.183594 39.46875 1191.183594 65.085938 1191.183594 83.507812 L 1191.183594 203.269531 C 1190.808594 206.5625 1187.738281 209.261719 1184.066406 209.261719 L 1146.84375 209.261719 C 1143.472656 208.960938 1140.628906 206.488281 1140.253906 203.269531 L 1140.253906 99.910156 C 1140.253906 79.089844 1142.722656 48.609375 1117.109375 48.609375 C 1108.046875 48.609375 1099.734375 54.675781 1095.613281 63.886719 C 1090.445312 75.496094 1089.773438 87.105469 1089.773438 99.910156 L 1089.773438 202.371094 C 1089.699219 206.191406 1086.476562 209.261719 1082.507812 209.261719 Z M 617.027344 209.636719 C 604.667969 199.375 602.421875 194.65625 595.679688 184.917969 C 575.382812 205.664062 560.929688 211.882812 534.566406 211.882812 C 503.332031 211.882812 479.066406 192.632812 479.066406 154.0625 C 479.066406 123.953125 495.320312 103.507812 518.613281 93.472656 C 538.757812 84.632812 566.847656 83.058594 588.339844 80.589844 L 588.339844 75.796875 C 588.339844 67.03125 589.015625 56.546875 583.847656 48.980469 C 579.351562 42.089844 570.664062 39.320312 563.027344 39.320312 C 548.871094 39.320312 536.289062 46.585938 533.21875 61.566406 C 532.617188 64.933594 530.148438 68.230469 526.777344 68.378906 L 490.824219 64.484375 C 487.753906 63.8125 484.386719 61.339844 485.285156 56.695312 C 493.523438 13.105469 532.992188 0 568.195312 0 C 586.242188 0 609.835938 4.792969 624.066406 18.425781 C 642.117188 35.277344 640.394531 57.746094 640.394531 82.234375 L 640.394531 139.980469 C 640.394531 157.355469 647.585938 164.996094 654.398438 174.359375 C 656.722656 177.730469 657.246094 181.699219 654.25 184.246094 C 646.683594 190.535156 633.203125 202.21875 625.789062 208.8125 L 625.789062 208.734375 C 623.316406 210.910156 619.796875 211.058594 617.027344 209.636719 Z M 588.339844 118.335938 L 588.339844 110.324219 C 561.527344 110.324219 533.140625 116.089844 533.140625 147.695312 C 533.140625 163.648438 541.53125 174.507812 555.761719 174.507812 C 566.171875 174.507812 575.535156 168.066406 581.449219 157.65625 C 588.714844 144.851562 588.339844 132.792969 588.339844 118.335938 Z M 139.5625 208.734375 C 137.089844 210.910156 133.570312 211.058594 130.800781 209.636719 C 118.441406 199.375 116.269531 194.65625 109.527344 184.917969 C 89.15625 205.664062 74.777344 211.882812 48.339844 211.882812 C 17.179688 211.882812 -7.160156 192.632812 -7.160156 154.0625 C -7.160156 123.953125 9.167969 103.507812 32.386719 93.472656 C 52.53125 84.632812 80.691406 83.058594 102.113281 80.589844 L 102.113281 75.796875 C 102.113281 67.03125 102.863281 56.546875 97.695312 48.980469 C 93.125 42.09375 84.4375 39.320312 76.875 39.320312 C 62.71875 39.320312 50.0625 46.585938 46.988281 61.566406 C 46.390625 64.933594 43.917969 68.230469 40.625 68.378906 L 4.597656 64.484375 C 1.601562 63.8125 -1.769531 61.339844 -0.945312 56.695312 C 7.371094 13.105469 46.765625 0 82.042969 0 C 100.089844 0 123.609375 4.792969 137.914062 18.425781 C 155.964844 35.277344 154.242188 57.746094 154.242188 82.234375 L 154.242188 139.980469 C 154.242188 157.355469 161.429688 164.996094 168.171875 174.359375 C 170.570312 177.730469 171.09375 181.699219 168.097656 184.246094 C 160.53125 190.535156 147.050781 202.21875 139.636719 208.8125 Z M 102.1875 118.410156 L 102.1875 110.324219 C 75.375 110.324219 47.066406 116.089844 47.066406 147.695312 C 47.066406 163.722656 55.304688 174.507812 69.609375 174.507812 C 80.019531 174.507812 89.382812 168.140625 95.222656 157.730469 C 102.5625 144.851562 102.1875 132.867188 102.1875 118.410156 Z M 625.789062 208.734375 Z M 625.789062 208.734375 "/></g><g clip-rule="nonzero" clip-path="url(#a68a6c4c69)"><path style=" stroke:none;fill-rule:evenodd;fill:#ffffff;fill-opacity:1;" d="M 701.160156 39.558594 L 701.160156 12.261719 C 701.160156 8.125 704.320312 5.339844 708.082031 5.339844 L 830.546875 5.339844 C 834.457031 5.339844 837.617188 8.199219 837.617188 12.261719 L 837.617188 35.648438 C 837.542969 39.558594 834.308594 44.675781 828.441406 52.796875 L 764.953125 143.34375 C 788.496094 142.742188 813.394531 146.277344 834.757812 158.3125 C 839.574219 161.019531 840.925781 165.003906 841.304688 168.992188 L 841.304688 198.09375 C 841.304688 202.082031 836.867188 206.746094 832.277344 204.335938 C 794.589844 184.632812 744.566406 182.453125 702.890625 204.5625 C 698.679688 206.894531 694.242188 202.230469 694.242188 198.246094 L 694.242188 170.570312 C 694.242188 166.132812 694.316406 158.535156 698.753906 151.769531 L 772.25 46.402344 L 708.230469 46.402344 C 704.320312 46.402344 701.160156 43.695312 701.160156 39.558594 Z M 217.320312 210.128906 C 213.785156 209.828125 210.925781 207.195312 210.625 203.734375 L 210.625 12.710938 C 210.625 8.875 213.859375 5.867188 217.847656 5.867188 L 252.601562 5.867188 C 256.210938 6.019531 259.070312 8.800781 259.296875 12.261719 L 259.296875 37.230469 L 260.046875 37.230469 C 269.074219 13.085938 286.074219 1.804688 309.019531 1.804688 C 332.335938 1.804688 346.929688 13.085938 357.386719 37.230469 C 366.414062 13.085938 386.875 1.804688 408.839844 1.804688 C 424.488281 1.804688 441.5625 8.273438 451.945312 22.714844 C 463.753906 38.808594 461.347656 62.121094 461.347656 82.652344 L 461.273438 203.210938 C 461.273438 207.046875 458.113281 210.128906 454.125 210.128906 L 416.890625 210.128906 C 413.203125 209.828125 410.195312 206.894531 410.195312 203.210938 L 410.195312 101.90625 C 410.195312 93.859375 410.945312 73.777344 409.140625 66.109375 C 406.359375 53.324219 398.082031 49.714844 387.25 49.714844 C 378.222656 49.714844 368.820312 55.730469 364.984375 65.355469 C 361.148438 74.984375 361.523438 91.078125 361.523438 101.90625 L 361.523438 203.210938 C 361.523438 207.046875 358.363281 210.128906 354.378906 210.128906 L 317.140625 210.128906 C 313.382812 209.828125 310.449219 206.894531 310.449219 203.210938 L 310.449219 101.90625 C 310.449219 80.621094 313.90625 49.261719 287.429688 49.261719 C 260.722656 49.261719 261.703125 79.871094 261.703125 101.90625 L 261.703125 203.210938 C 261.703125 207.046875 258.542969 210.128906 254.554688 210.128906 Z M 1028.234375 109.578125 C 1028.234375 167.863281 995.210938 214.113281 943.082031 214.113281 C 888.769531 214.113281 859.207031 166.660156 859.207031 107.546875 C 859.207031 48.058594 889.144531 1.804688 943.082031 1.804688 C 998.296875 1.804688 1028.234375 49.261719 1028.234375 109.578125 Z M 914.195312 101.53125 C 914.195312 124.84375 913.820312 174.707031 943.082031 174.707031 C 971.894531 174.707031 973.246094 134.472656 973.246094 110.027344 C 973.246094 93.859375 972.570312 74.605469 967.753906 59.339844 C 963.542969 46.027344 955.191406 40.839844 943.382812 40.839844 C 915.925781 40.839844 914.195312 78.214844 914.195312 101.53125 Z M 1062.839844 210.128906 C 1059.078125 209.828125 1056.144531 206.894531 1056.144531 203.210938 L 1056.070312 12.109375 C 1056.371094 8.574219 1059.453125 5.867188 1063.214844 5.867188 L 1097.742188 5.867188 C 1100.976562 6.019531 1103.683594 8.199219 1104.4375 11.207031 L 1104.4375 40.386719 L 1105.113281 40.386719 C 1115.496094 14.289062 1130.164062 1.804688 1155.890625 1.804688 C 1172.589844 1.804688 1188.839844 7.824219 1199.371094 24.367188 C 1209.074219 39.636719 1209.074219 65.355469 1209.074219 83.855469 L 1209.074219 204.113281 C 1208.699219 207.421875 1205.613281 210.128906 1201.929688 210.128906 L 1164.542969 210.128906 C 1161.15625 209.828125 1158.296875 207.347656 1157.921875 204.113281 L 1157.921875 100.328125 C 1157.921875 79.417969 1160.40625 48.808594 1134.675781 48.808594 C 1125.574219 48.808594 1117.226562 54.902344 1113.089844 64.152344 C 1107.898438 75.808594 1107.222656 87.464844 1107.222656 100.328125 L 1107.222656 203.210938 C 1107.144531 207.046875 1103.910156 210.128906 1099.925781 210.128906 Z M 632.40625 210.503906 C 619.996094 200.203125 617.738281 195.464844 610.96875 185.6875 C 590.582031 206.519531 576.0625 212.761719 549.585938 212.761719 C 518.214844 212.761719 493.84375 193.433594 493.84375 154.703125 C 493.84375 124.46875 510.167969 103.9375 533.5625 93.859375 C 553.796875 84.984375 582.007812 83.40625 603.59375 80.921875 L 603.59375 76.109375 C 603.59375 67.3125 604.273438 56.78125 599.082031 49.1875 C 594.570312 42.269531 585.84375 39.484375 578.167969 39.484375 C 563.953125 39.484375 551.316406 46.78125 548.230469 61.820312 C 547.628906 65.207031 545.148438 68.515625 541.761719 68.664062 L 505.652344 64.753906 C 502.570312 64.078125 499.183594 61.59375 500.085938 56.933594 C 508.363281 13.164062 548.003906 0 583.359375 0 C 601.488281 0 625.183594 4.816406 639.476562 18.503906 C 657.605469 35.421875 655.875 57.984375 655.875 82.578125 L 655.875 140.5625 C 655.875 158.011719 663.097656 165.679688 669.941406 175.082031 C 672.273438 178.464844 672.800781 182.453125 669.792969 185.007812 C 662.195312 191.328125 648.65625 203.058594 641.207031 209.675781 L 641.207031 209.601562 C 638.726562 211.78125 635.191406 211.933594 632.40625 210.503906 Z M 603.59375 118.828125 L 603.59375 110.78125 C 576.664062 110.78125 548.15625 116.570312 548.15625 148.308594 C 548.15625 164.328125 556.582031 175.234375 570.875 175.234375 C 581.328125 175.234375 590.730469 168.765625 596.675781 158.3125 C 603.972656 145.449219 603.59375 133.34375 603.59375 118.828125 Z M 152.851562 209.601562 C 150.371094 211.78125 146.835938 211.933594 144.050781 210.503906 C 131.640625 200.203125 129.457031 195.464844 122.6875 185.6875 C 102.226562 206.519531 87.785156 212.761719 61.230469 212.761719 C 29.9375 212.761719 5.488281 193.433594 5.488281 154.703125 C 5.488281 124.46875 21.886719 103.9375 45.207031 93.859375 C 65.441406 84.984375 93.726562 83.40625 115.242188 80.921875 L 115.242188 76.109375 C 115.242188 67.3125 115.992188 56.78125 110.800781 49.1875 C 106.214844 42.269531 97.488281 39.484375 89.890625 39.484375 C 75.671875 39.484375 62.960938 46.78125 59.875 61.820312 C 59.273438 65.207031 56.792969 68.515625 53.480469 68.664062 L 17.300781 64.753906 C 14.289062 64.078125 10.90625 61.59375 11.734375 56.933594 C 20.082031 13.164062 59.648438 0 95.082031 0 C 113.210938 0 136.832031 4.816406 151.199219 18.503906 C 169.328125 35.421875 167.597656 57.984375 167.597656 82.578125 L 167.597656 140.5625 C 167.597656 158.011719 174.816406 165.679688 181.589844 175.082031 C 183.996094 178.464844 184.523438 182.453125 181.511719 185.007812 C 173.914062 191.328125 160.375 203.058594 152.929688 209.675781 Z M 115.316406 118.902344 L 115.316406 110.78125 C 88.386719 110.78125 59.949219 116.570312 59.949219 148.308594 C 59.949219 164.402344 68.226562 175.234375 82.59375 175.234375 C 93.050781 175.234375 102.453125 168.839844 108.320312 158.386719 C 115.691406 145.449219 115.316406 133.417969 115.316406 118.902344 Z M 641.207031 209.601562 Z M 641.207031 209.601562 "/></g><g clip-rule="nonzero" clip-path="url(#027614a8b2)"><path style=" stroke:none;fill-rule:nonzero;fill:#ff6200;fill-opacity:1;" d="M 384.070312 244.742188 C 388.195312 249.0625 392.910156 252.957031 396.359375 257.765625 C 427.078125 300.535156 471.269531 322.042969 520.480469 333.65625 C 537.472656 337.671875 556.761719 337.28125 574.003906 333.851562 C 623.273438 324.042969 668.414062 303.78125 707.328125 271.4375 C 718.546875 262.113281 728.011719 250.683594 736.175781 237.300781 C 731.679688 238.996094 727.113281 240.535156 722.691406 242.414062 C 709.675781 247.960938 696.910156 254.179688 683.644531 259.007812 C 677.851562 261.121094 671.03125 261.085938 664.734375 260.777344 C 662.398438 260.667969 658.847656 257.265625 658.394531 254.882812 C 657.976562 252.675781 660.433594 248.144531 662.511719 247.503906 C 696.742188 236.902344 726.136719 216.839844 757.125 199.867188 C 767.992188 193.917969 774.851562 195.566406 779.4375 206.152344 C 791.101562 233.035156 796.253906 261.410156 795.660156 290.757812 C 795.640625 291.730469 794.121094 292.675781 791.8125 295.355469 C 767.980469 286.410156 775.398438 260.890625 763.660156 240.332031 C 760.703125 245.242188 758.972656 249.164062 756.347656 252.363281 C 705.550781 314.117188 638.679688 346.792969 560.960938 358.992188 C 549.125 360.84375 536.40625 360.113281 524.523438 358.101562 C 480.316406 350.601562 440.902344 332.101562 408.347656 301.140625 C 397.851562 291.164062 390.335938 277.855469 382.539062 265.386719 C 379.507812 260.546875 379.480469 253.835938 378.082031 247.96875 C 380.074219 246.894531 382.074219 245.816406 384.070312 244.742188 Z M 384.070312 244.742188 "/></g><g style="fill:#ffffff;fill-opacity:1;"><g transform="translate(874.149719, 207.959611)"><path style="stroke:none" d="M 33.640625 -49.875 L 33.640625 -153.109375 L 13.046875 -153.109375 C 9.765625 -153.109375 7.445312 -157.265625 6.09375 -165.578125 C 5.507812 -169.640625 5.21875 -173.796875 5.21875 -178.046875 C 5.21875 -182.304688 5.507812 -186.460938 6.09375 -190.515625 C 7.445312 -198.828125 9.765625 -202.984375 13.046875 -202.984375 L 110.484375 -202.984375 C 113.765625 -202.984375 115.988281 -198.828125 117.15625 -190.515625 C 117.925781 -186.460938 118.3125 -182.304688 118.3125 -178.046875 C 118.3125 -173.796875 117.925781 -169.640625 117.15625 -165.578125 C 115.988281 -157.265625 113.765625 -153.109375 110.484375 -153.109375 L 91.0625 -153.109375 L 91.0625 -49.875 L 111.359375 -49.875 C 114.640625 -49.875 116.957031 -45.71875 118.3125 -37.40625 C 119.082031 -33.34375 119.46875 -29.1875 119.46875 -24.9375 C 119.46875 -20.6875 119.082031 -16.53125 118.3125 -12.46875 C 116.957031 -4.15625 114.640625 0 111.359375 0 L 13.625 0 C 10.34375 0 8.117188 -4.15625 6.953125 -12.46875 C 6.179688 -16.53125 5.796875 -20.6875 5.796875 -24.9375 C 5.796875 -29.1875 6.179688 -33.34375 6.953125 -37.40625 C 8.117188 -45.71875 10.34375 -49.875 13.625 -49.875 Z M 33.640625 -49.875 "/></g></g></g></svg>