<?xml version="1.0" encoding="UTF-8"?>
<svg version="1.1" xmlns="http://www.w3.org/2000/svg" width="629" height="397">
<path d="M0 0 C1.29811363 -0.01007584 1.29811363 -0.01007584 2.62245178 -0.02035522 C5.48965163 -0.0393851 8.35661784 -0.04326247 11.22387695 -0.04541016 C13.21824744 -0.05183657 15.21261698 -0.05856481 17.20698547 -0.06558228 C21.39256982 -0.0775689 25.57807157 -0.08126187 29.76367188 -0.08007812 C35.11580606 -0.0798753 40.46740705 -0.10713316 45.81941509 -0.14162254 C49.94165964 -0.1639143 54.06377657 -0.1679149 58.18607521 -0.16685867 C60.15836226 -0.1692129 62.13065291 -0.17802637 64.10288048 -0.19352341 C66.86974154 -0.21322139 69.6354625 -0.2073296 72.40234375 -0.1953125 C73.21043488 -0.20655151 74.018526 -0.21779053 74.85110474 -0.22937012 C80.42020638 -0.16821436 84.93439544 1.0195603 89.5246582 4.29052734 C91.37231445 7.25146484 91.37231445 7.25146484 92.5871582 10.66552734 C93.05956871 11.91320108 93.53627549 13.15925497 94.0168457 14.40380859 C94.25757813 15.0427002 94.49831055 15.6815918 94.74633789 16.33984375 C96.0484976 19.60341214 97.62231036 22.72195343 99.2121582 25.85302734 C100.05327148 27.52558594 100.05327148 27.52558594 100.91137695 29.23193359 C102.43760177 32.2224964 102.43760177 32.2224964 104.04418945 34.69287109 C105.27333067 36.84954367 106.0941723 38.72764373 106.91918945 41.04443359 C108.59187761 45.68258836 110.85939493 49.90440776 113.2121582 54.22802734 C117.30423658 61.86552093 121.10846261 69.5910131 124.7355957 77.45849609 C128.14200811 84.81788969 131.93578542 91.93839134 135.84106445 99.04443359 C137.25678303 101.77404413 138.50618118 104.51196602 139.69189453 107.34692383 C141.38288544 111.29356078 143.24921795 115.1607644 145.0871582 119.04052734 C145.48612305 119.89001953 145.88508789 120.73951172 146.29614258 121.61474609 C146.87525391 122.83871094 146.87525391 122.83871094 147.46606445 124.08740234 C147.81354736 124.82313477 148.16103027 125.55886719 148.51904297 126.31689453 C149.59269002 128.51878225 149.59269002 128.51878225 151.5246582 131.29052734 C151.5246582 132.61052734 151.5246582 133.93052734 151.5246582 135.29052734 C152.1846582 135.29052734 152.8446582 135.29052734 153.5246582 135.29052734 C154.65218469 137.51844733 155.77673959 139.74778622 156.8996582 141.97802734 C157.21676758 142.60386719 157.53387695 143.22970703 157.8605957 143.87451172 C159.5812789 147.29795432 161.11855154 150.72915883 162.5246582 154.29052734 C166.98560776 164.44443372 166.98560776 164.44443372 173.5246582 173.29052734 C175.30792307 173.39345223 177.09529049 173.42574114 178.8815155 173.43096924 C180.62492218 173.43953445 180.62492218 173.43953445 182.40354919 173.44827271 C183.6902803 173.44939056 184.97701141 173.45050842 186.30273438 173.45166016 C187.66258886 173.4562862 189.02244205 173.46131057 190.3822937 173.46670532 C194.08706414 173.47985587 197.79181644 173.48627996 201.49660659 173.49071598 C203.81080798 173.49364372 206.12500438 173.49774805 208.43920326 173.50222015 C215.67831595 173.51590489 222.91741727 173.52556556 230.156542 173.52942204 C238.51502819 173.533899 246.87335054 173.55142586 255.23178691 173.58042264 C261.68960028 173.60204811 268.14736761 173.61212686 274.6052168 173.61346316 C278.46307845 173.614511 282.3207863 173.6204135 286.17860985 173.63828278 C289.81065652 173.65477749 293.44243405 173.6569123 297.07450485 173.64814377 C299.03906461 173.64700767 301.00361548 173.66071609 302.96812439 173.67489624 C304.73267975 173.66654251 304.73267975 173.66654251 306.53288269 173.65802002 C307.55108691 173.65948658 308.56929113 173.66095314 309.61835003 173.66246414 C313.93215604 173.11040183 317.33646304 171.58101745 320.29418945 168.36865234 C321.528579 166.28390555 322.39534472 164.31963618 323.2121582 162.04052734 C325.03943281 157.27832518 327.2190045 152.77074552 329.5246582 148.22802734 C332.68626063 142.0090634 332.68626063 142.0090634 335.5871582 135.66552734 C337.44812196 131.35849332 339.56110857 127.1913664 341.67724609 123.00488281 C344.39892523 117.59598527 346.970479 112.12231317 349.5300293 106.63525391 C352.27043807 100.78068358 355.14499962 95.00315953 358.0793457 89.24365234 C359.36008504 86.62679035 360.48676647 84.01121442 361.5246582 81.29052734 C362.1846582 81.29052734 362.8446582 81.29052734 363.5246582 81.29052734 C363.60973633 80.46037109 363.69481445 79.63021484 363.7824707 78.77490234 C364.68024813 74.5600736 366.34220453 71.29408979 368.3996582 67.54052734 C368.75157227 66.86892578 369.10348633 66.19732422 369.46606445 65.50537109 C371.23157818 62.23031032 372.37924834 60.38746725 375.5246582 58.29052734 C380.60330428 57.32394884 385.67298492 57.0798834 390.8293457 56.93896484 C391.59393097 56.91581207 392.35851624 56.8926593 393.14627075 56.86880493 C394.74792805 56.82150759 396.34964637 56.77623618 397.95141602 56.73291016 C400.41357952 56.66514419 402.87530897 56.58755554 405.3371582 56.50927734 C406.89703719 56.4644168 408.45693267 56.42012527 410.0168457 56.37646484 C410.75530731 56.35256683 411.49376892 56.32866882 412.25460815 56.30404663 C414.01075392 56.26035752 415.76808916 56.26998736 417.5246582 56.29052734 C418.5246582 57.29052734 418.5246582 57.29052734 418.8840332 60.69287109 C418.79800569 66.38966343 416.31167926 70.86152822 413.7746582 75.85302734 C413.28384766 76.84810303 412.79303711 77.84317871 412.28735352 78.8684082 C407.74392104 88.01921457 403.00634181 97.07279928 398.2434082 106.11083984 C394.90266006 112.45504905 391.70384092 118.86387397 388.5246582 125.29052734 C386.87801408 128.59155438 385.22579519 131.889793 383.57446289 135.18847656 C381.88387963 138.56720239 380.19756909 141.94791465 378.52075195 145.33349609 C375.28526638 151.85431697 371.99231045 158.32731572 368.5246582 164.72802734 C365.21962552 170.83206289 362.23843979 177.05532975 359.32470703 183.35424805 C357.24150339 187.83679563 355.00667862 192.1705451 352.53637695 196.45458984 C351.35598086 198.52524046 351.35598086 198.52524046 350.0246582 201.79052734 C348.82155897 204.59775889 347.56803227 207.27783076 346.1496582 209.97802734 C345.77067383 210.70376953 345.39168945 211.42951172 345.0012207 212.17724609 C343.09353908 214.90755233 341.3210668 216.45121863 338.5246582 218.29052734 C335.82870154 218.67158757 333.54705105 218.82398833 330.85778809 218.78500366 C330.0934195 218.78983249 329.32905091 218.79466132 328.54151964 218.79963648 C325.98411756 218.8108946 323.42771827 218.79359867 320.87036133 218.77636719 C319.03539255 218.77851338 317.2004251 218.78239157 315.36546326 218.78787231 C310.38404363 218.7975667 305.40298236 218.78226105 300.42160606 218.76196623 C295.20958234 218.74439923 289.99756975 218.74792024 284.78552246 218.74868774 C276.03265385 218.74681462 267.2799239 218.72944932 258.52709961 218.70214844 C248.4063399 218.67069755 238.28573206 218.66015225 228.16492701 218.66161954 C218.43072559 218.66284022 208.69657364 218.65262828 198.96238708 218.63603592 C194.81896071 218.62897364 190.67555185 218.6253099 186.53211975 218.6242485 C181.65328984 218.62223952 176.77458746 218.61002891 171.89579964 218.58991623 C170.10473982 218.58407432 168.31366533 218.58161386 166.52259636 218.5827713 C164.07877142 218.58375295 161.6353035 218.57243938 159.19152832 218.55795288 C158.48189579 218.56105008 157.77226327 218.56414729 157.04112673 218.56733835 C153.11590238 218.5288838 149.99054312 218.19575004 146.5246582 216.29052734 C145.053616 213.91951826 143.9051089 211.75249138 142.7746582 209.22802734 C142.08555335 207.76730401 141.3940655 206.30770296 140.70043945 204.84912109 C140.34546387 204.0948584 139.99048828 203.3405957 139.62475586 202.56347656 C137.85573667 198.90844579 135.90075178 195.35755604 133.9621582 191.79052734 C130.58099476 185.50904803 127.57060714 179.13589359 124.81933594 172.55419922 C123.2987372 168.93457975 121.61446326 165.61192418 119.5246582 162.29052734 C118.66191355 160.79544462 117.80741701 159.29556497 116.9621582 157.79052734 C116.54836914 157.05833984 116.13458008 156.32615234 115.70825195 155.57177734 C114.5246582 153.29052734 114.5246582 153.29052734 113.59887695 150.97021484 C112.21744088 147.52415977 110.56746002 144.2290116 108.8996582 140.91552734 C108.54556885 140.20855713 108.19147949 139.50158691 107.82666016 138.77319336 C105.53067347 134.21425943 103.14826218 129.71347241 100.7121582 125.22802734 C97.34651905 119.01620998 94.29164188 112.67798906 91.2746582 106.29052734 C86.53326957 96.25843273 81.47893655 86.42013619 76.30981445 76.60302734 C72.60103982 69.55497309 69.05617443 62.4285086 65.5246582 55.29052734 C64.04821724 52.30999919 62.56842053 49.33116171 61.0871582 46.35302734 C60.74458984 45.65959229 60.40202148 44.96615723 60.04907227 44.25170898 C58.60260264 41.05904575 58.60260264 41.05904575 56.5246582 38.29052734 C44.59075701 36.51094663 32.23511843 37.2114475 20.2121582 37.29052734 C16.11190018 37.31726608 12.01168987 37.33716581 7.91137695 37.35302734 C6.9872551 37.36132568 6.06313324 37.36962402 5.11100769 37.37817383 C-0.17530589 37.39805323 -5.26537048 37.23854015 -10.4753418 36.29052734 C-12.73118616 31.77883862 -11.70255743 25.59853329 -11.71557617 20.57763672 C-11.72530445 18.29927373 -11.75633753 16.02180439 -11.7878418 13.74365234 C-11.79436968 12.30094938 -11.799621 10.85823995 -11.8034668 9.41552734 C-11.8128125 8.09810547 -11.8221582 6.78068359 -11.83178711 5.42333984 C-11.71416016 4.38951172 -11.5965332 3.35568359 -11.4753418 2.29052734 C-7.6279912 -0.27437306 -4.46148228 -0.00494219 0 0 Z " fill="#F9FAFA" transform="translate(93.475341796875,58.70947265625)"/>
<path d="M0 0 C1.36125 0.928125 1.36125 0.928125 2.75 1.875 C15.51960126 13.93517897 20.56653314 32.33010272 21.10791016 49.40307617 C21.17000586 53.20681655 21.18559693 57.00827248 21.1875 60.8125 C21.19974609 62.08931641 21.21199219 63.36613281 21.22460938 64.68164062 C21.24965811 81.08856502 18.60575009 95.87706657 10 110 C9.62101562 110.69996094 9.24203125 111.39992188 8.8515625 112.12109375 C3.79364837 121.09973998 -4.52578301 125.52425176 -14 129 C-16.90612536 129.62966049 -19.09032551 129.93222056 -22 130 C-23.13566406 130.03867188 -24.27132812 130.07734375 -25.44140625 130.1171875 C-41.4894851 130.40867632 -52.20660211 127.97327376 -64.06640625 116.89453125 C-74.68063572 106.49473065 -79.60535956 89.66258787 -80.14526367 75.07519531 C-80.15845405 73.65954643 -80.16577094 72.24383363 -80.16796875 70.828125 C-80.17129715 70.06506042 -80.17462555 69.30199585 -80.17805481 68.51580811 C-80.18309011 66.90898231 -80.18546419 65.30214618 -80.18530273 63.6953125 C-80.18748144 61.2706526 -80.20565196 58.8464542 -80.22460938 56.421875 C-80.29668424 36.90099264 -76.44973708 17.96876621 -63 3 C-60.4823389 0.73358159 -57.85114413 -1.17526776 -55 -3 C-54.39542969 -3.391875 -53.79085938 -3.78375 -53.16796875 -4.1875 C-37.49176963 -13.16418666 -14.10162139 -10.2881479 0 0 Z M-41.6875 21.3125 C-52.3446411 33.69782615 -50.95896892 55.65920626 -50 71 C-49.68288444 74.64173472 -49.25777833 78.25513034 -48.75 81.875 C-48.64091309 82.67671631 -48.53182617 83.47843262 -48.41943359 84.30444336 C-47.39572679 90.65934146 -45.52650065 96.41069914 -40.95703125 101.09375 C-36.40812595 104.07663872 -32.73048549 105.95185835 -27.19921875 105.5078125 C-21.32103212 104.15050475 -17.32355283 101.07840405 -14.125 96 C-9.26688401 85.72830285 -9.67716127 73.86282324 -9.73925781 62.72485352 C-9.75000355 60.43674334 -9.73928361 58.14941508 -9.7265625 55.86132812 C-9.41185948 37.20194081 -9.41185948 37.20194081 -17.7109375 21.21484375 C-21.48994062 17.84244223 -24.10029664 16.14337384 -29.3125 15.75 C-34.65064836 16.11190836 -37.67082223 17.8562889 -41.6875 21.3125 Z " fill="#ED8704" transform="translate(360,52)"/>
<path d="M0 0 C1.010625 0.5775 2.02125 1.155 3.0625 1.75 C8.48183397 5.90097921 12.3855637 10.65603641 15 17 C15.33851355 19.85479757 15.52512566 22.40348482 15.5 25.25 C15.49427979 26.00071777 15.48855957 26.75143555 15.48266602 27.52490234 C15.27680202 33.95312679 13.85620335 38.76305888 10 44 C9.52691406 44.65355469 9.05382812 45.30710937 8.56640625 45.98046875 C3.03976471 52.44429639 -5.28817031 55.24274166 -13.5 56.5625 C-23.75501424 54.91437271 -31.71199979 52.51314313 -38.1875 44.1875 C-43.08952894 35.56669048 -45.04826214 27.22494646 -42.78515625 17.453125 C-40.11345846 9.10573091 -34.39268405 3.96250785 -27.3125 -0.8125 C-19.23208158 -4.96190405 -7.76318276 -4.52852327 0 0 Z " fill="#F6F6F7" transform="translate(420,300)"/>
<path d="M0 0 C1.19367188 -0.01417969 2.38734375 -0.02835937 3.6171875 -0.04296875 C10.90814526 0.43605854 16.59621752 3.56658033 22.125 8.1875 C28.03761655 15.22836946 29.61094853 23.09014162 29.44140625 32.12109375 C28.51533395 41.09599198 24.19873967 47.11376033 18 53.3125 C11.73440843 57.39875537 3.67523002 60.72917 -3.875 59.1875 C-12.66819135 56.4777833 -19.95660634 53.63050499 -25.125 45.6875 C-25.62515625 44.9346875 -26.1253125 44.181875 -26.640625 43.40625 C-30.2828876 36.85939824 -30.02921815 27.00337572 -28.30859375 19.82421875 C-27.5625 18.0625 -27.5625 18.0625 -25.875 15.1875 C-25.1015625 13.7334375 -25.1015625 13.7334375 -24.3125 12.25 C-23.838125 11.569375 -23.36375 10.88875 -22.875 10.1875 C-22.215 10.1875 -21.555 10.1875 -20.875 10.1875 C-20.62492188 9.58292969 -20.37484375 8.97835938 -20.1171875 8.35546875 C-18.68714229 5.85963513 -17.44980307 4.96525957 -15 3.5 C-14.32195312 3.08363281 -13.64390625 2.66726563 -12.9453125 2.23828125 C-8.66561002 0.06613037 -4.77200964 0.02565597 0 0 Z " fill="#F6F7F7" transform="translate(258.875,296.8125)"/>
<path d="M0 0 C0.33 0 0.66 0 1 0 C1.22577402 5.4185766 0.46670113 9.77487721 -1 15 C-1.66 15 -2.32 15 -3 15 C-3.02474322 20.05370732 -3.04288053 25.10737926 -3.05493164 30.16113281 C-3.0599563 31.87988906 -3.0667771 33.59864105 -3.07543945 35.31738281 C-3.0875868 37.78972426 -3.09324703 40.26200912 -3.09765625 42.734375 C-3.10281754 43.50118591 -3.10797882 44.26799683 -3.11329651 45.05804443 C-3.11366351 48.55868758 -2.8913523 51.62892127 -2 55 C-1.92291277 56.36800819 -1.89196391 57.73923592 -1.90234375 59.109375 C-1.90717773 60.24052734 -1.90717773 60.24052734 -1.91210938 61.39453125 C-1.92048828 62.17183594 -1.92886719 62.94914062 -1.9375 63.75 C-1.94201172 64.54277344 -1.94652344 65.33554688 -1.95117188 66.15234375 C-1.96291435 68.10159508 -1.98084854 70.05080738 -2 72 C-7.42446902 63.86329646 -6.31071544 52.88606933 -6.26074219 43.46899414 C-6.25003735 41.07086817 -6.26067772 38.67349366 -6.2734375 36.27539062 C-6.28418975 25.4919296 -5.49861176 15.57939999 -1.875 5.3125 C-1.34519531 3.79076172 -1.34519531 3.79076172 -0.8046875 2.23828125 C-0.53914063 1.49964844 -0.27359375 0.76101562 0 0 Z " fill="#BC771C" transform="translate(286,72)"/>
<path d="M0 0 C6.0546875 0.390625 6.0546875 0.390625 8 1 C8.30679687 1.639375 8.61359375 2.27875 8.9296875 2.9375 C9.84275186 5.21879819 9.84275186 5.21879819 12.328125 6.046875 C25.94149734 9.32282021 39.30751865 8.08363847 53 6 C49.29732717 10.38790774 44.45475163 10.42479515 39 11 C26.38492147 11.65759452 14.64740569 11.40016785 4 4 C1.4375 1.6875 1.4375 1.6875 0 0 Z " fill="#AA6B1E" transform="translate(299,171)"/>
<path d="M0 0 C2.359375 0.66015625 2.359375 0.66015625 5 2 C6.328125 4.49609375 6.328125 4.49609375 7.25 7.4375 C7.56453125 8.40558594 7.8790625 9.37367187 8.203125 10.37109375 C8.46609375 11.23863281 8.7290625 12.10617188 9 13 C9.33 13.99 9.66 14.98 10 16 C10.10162559 17.56818534 10.14835464 19.14024708 10.16113281 20.71166992 C10.17074036 21.66663864 10.1803479 22.62160736 10.19024658 23.60551453 C10.19449646 24.63674942 10.19874634 25.66798431 10.203125 26.73046875 C10.20882507 27.79485672 10.21452515 28.85924469 10.22039795 29.95588684 C10.22984974 32.21122239 10.23638264 34.46657176 10.24023438 36.72192383 C10.2499131 40.15666155 10.28092431 43.59079404 10.3125 47.02539062 C10.31903294 49.21874645 10.32428227 51.41210656 10.328125 53.60546875 C10.3404718 54.62658249 10.3528186 55.64769623 10.36553955 56.69975281 C10.34654098 62.84499363 9.52708981 67.38410587 7 73 C5.59774616 70.19549232 6.33776145 68.54311427 6.921875 65.47265625 C8.16684791 57.85296095 8.30365947 50.42272852 8.26074219 42.72485352 C8.24999645 40.43674334 8.26071639 38.14941508 8.2734375 35.86132812 C8.28699204 22.64949031 7.51942275 11.27913412 0 0 Z " fill="#764A05" transform="translate(341,72)"/>
<path d="M0 0 C5.66185064 8.49277596 4.28131524 21.4339633 4.1875 31.25 C4.18685547 32.54679687 4.18621094 33.84359375 4.18554688 35.1796875 C4.15490666 41.86606265 3.90423064 48.37379786 3 55 C1.40356853 52.17519683 0.75378797 50.1770424 0.78881836 46.9375 C0.79219711 46.14988281 0.79557587 45.36226562 0.79905701 44.55078125 C0.81251663 43.70902344 0.82597626 42.86726563 0.83984375 42 C0.84504532 41.12730469 0.85024689 40.25460938 0.85560608 39.35546875 C0.87339728 36.57014211 0.90456057 33.78518548 0.9375 31 C0.96514953 28.21485059 0.98986444 25.42975471 1.00868225 22.64453125 C1.02090307 20.91271235 1.03847105 19.18092098 1.06199646 17.44921875 C1.06852737 16.66160156 1.07505829 15.87398437 1.08178711 15.0625 C1.09004013 14.37285156 1.09829315 13.68320313 1.10679626 12.97265625 C0.99293582 10.86951599 0.51335966 9.03829963 0 7 C-0.03888349 4.66699067 -0.0448635 2.33290199 0 0 Z " fill="#AC6F20" transform="translate(377,82)"/>
<path d="M0 0 C0.33 0 0.66 0 1 0 C0.99476318 0.90129639 0.98952637 1.80259277 0.98413086 2.73120117 C0.96688241 6.14006211 0.95445097 9.54887532 0.94506836 12.95776367 C0.94010176 14.42098736 0.93332622 15.88420625 0.92456055 17.34741211 C0.87049023 26.618882 1.11168402 35.75931051 2 45 C1.01 45 0.02 45 -1 45 C-1.02527124 38.75204325 -1.04283344 32.50409959 -1.05493164 26.25610352 C-1.05997298 24.12881986 -1.06680591 22.00153969 -1.07543945 19.87426758 C-1.08751379 16.82372174 -1.09323014 13.77322155 -1.09765625 10.72265625 C-1.10281754 9.76537125 -1.10797882 8.80808624 -1.11329651 7.8217926 C-1.11337204 6.94095505 -1.11344757 6.06011749 -1.11352539 5.15258789 C-1.115746 4.37315323 -1.11796661 3.59371857 -1.12025452 2.79066467 C-1 1 -1 1 0 0 Z " fill="#A36817" transform="translate(310,91)"/>
<path d="M0 0 C0.66 0.33 1.32 0.66 2 1 C1.24155872 9.53246438 -1.94681295 17.50160396 -6 25 C-6.66666667 22.33333333 -7.33333333 19.66666667 -8 17 C-7.01 17.33 -6.02 17.66 -5 18 C-4.80664062 17.03578125 -4.61328125 16.0715625 -4.4140625 15.078125 C-4.15367187 13.81484375 -3.89328125 12.5515625 -3.625 11.25 C-3.36976563 9.99703125 -3.11453125 8.7440625 -2.8515625 7.453125 C-2.1569875 4.63659152 -1.44319917 2.48481248 0 0 Z " fill="#C3761A" transform="translate(377,136)"/>
<path d="M0 0 C2.359375 0.66015625 2.359375 0.66015625 5 2 C6.328125 4.49609375 6.328125 4.49609375 7.25 7.4375 C7.56453125 8.40558594 7.8790625 9.37367187 8.203125 10.37109375 C8.46609375 11.23863281 8.7290625 12.10617188 9 13 C9.33 13.99 9.66 14.98 10 16 C10.03954234 18.33299825 10.04401732 20.66708189 10 23 C9.34 23 8.68 23 8 23 C7.90203125 22.2265625 7.8040625 21.453125 7.703125 20.65625 C6.53821075 12.54201968 4.56596393 6.8489459 0 0 Z " fill="#A4661E" transform="translate(341,72)"/>
<path d="M0 0 C0.99 0.33 1.98 0.66 3 1 C3 1.99 3 2.98 3 4 C3.66 4 4.32 4 5 4 C5 4.66 5 5.32 5 6 C5.66 6 6.32 6 7 6 C7 4.02 7 2.04 7 0 C7.66 0 8.32 0 9 0 C8.67 4.29 8.34 8.58 8 13 C4.3260401 9.62392874 1.94593446 6.60879214 0 2 C0 1.34 0 0.68 0 0 Z " fill="#C47014" transform="translate(287,154)"/>
<path d="M0 0 C0.639375 0.33 1.27875 0.66 1.9375 1 C7.2456061 2.73325913 12.64626032 2.51749991 18 1 C18 1.99 18 2.98 18 4 C14.80693695 5.06435435 12.35556004 5.20065353 9 5.25 C7.4221875 5.28867188 7.4221875 5.28867188 5.8125 5.328125 C3 5 3 5 1.125 3.609375 C0 2 0 2 0 0 Z " fill="#B8751C" transform="translate(321,154)"/>
<path d="M0 0 C2.39105598 2.14926381 3.63278854 3.99036913 4.75 7 C5.01296875 7.680625 5.2759375 8.36125 5.546875 9.0625 C6 11 6 11 5 14 C4.67 12.35 4.34 10.7 4 9 C3.34 9 2.68 9 2 9 C1.67 9.66 1.34 10.32 1 11 C-0.32 10.67 -1.64 10.34 -3 10 C-2.505 9.46375 -2.01 8.9275 -1.5 8.375 C0.37489544 5.40641555 0.23501425 3.44687573 0 0 Z " fill="#C37715" transform="translate(371,67)"/>
<path d="M0 0 C0.99 0.33 1.98 0.66 3 1 C0.525 5.455 0.525 5.455 -2 10 C-2.66 10 -3.32 10 -4 10 C-4 8.68 -4 7.36 -4 6 C-4.66 5.67 -5.32 5.34 -6 5 C-5.34 4.01 -4.68 3.02 -4 2 C-3.01 2 -2.02 2 -1 2 C-0.67 1.34 -0.34 0.68 0 0 Z " fill="#C3750E" transform="translate(367,160)"/>
<path d="M0 0 C0.33 0 0.66 0 1 0 C1.22577402 5.4185766 0.46670113 9.77487721 -1 15 C-1.99 15 -2.98 15 -4 15 C-3.32584613 9.7415998 -1.75734451 4.97361654 0 0 Z " fill="#B4701B" transform="translate(286,72)"/>
<path d="M0 0 C0.99 1.32 1.98 2.64 3 4 C2.360625 4.763125 1.72125 5.52625 1.0625 6.3125 C-1.14232781 8.88246713 -1.14232781 8.88246713 -2 12 C-2.99 12.33 -3.98 12.66 -5 13 C-4.01 10.03 -3.02 7.06 -2 4 C-1.34 4 -0.68 4 0 4 C0 2.68 0 1.36 0 0 Z " fill="#C2C4C6" transform="translate(457,136)"/>
<path d="M0 0 C-1.56727453 1.84170838 -2.50649641 2.88776232 -4.90112305 3.43237305 C-5.94586792 3.47164917 -5.94586792 3.47164917 -7.01171875 3.51171875 C-7.76904297 3.54716797 -8.52636719 3.58261719 -9.30664062 3.61914062 C-10.09232422 3.64169922 -10.87800781 3.66425781 -11.6875 3.6875 C-12.88342773 3.73874023 -12.88342773 3.73874023 -14.10351562 3.79101562 C-16.06851904 3.87338104 -18.03423696 3.93837067 -20 4 C-16.84274244 1.89516163 -15.60149717 1.69111983 -11.9375 1.4375 C-7.69731308 1.13240579 -4.26870214 -0.11233427 0 0 Z " fill="#C47919" transform="translate(352,177)"/>
<path d="M0 0 C3.48872415 1.16290805 4.09976864 2.13967609 6.1875 5.0625 C6.71730469 5.79597656 7.24710937 6.52945313 7.79296875 7.28515625 C8.19128906 7.85105469 8.58960938 8.41695312 9 9 C8.67 9.66 8.34 10.32 8 11 C5.5 9.75 5.5 9.75 3 8 C3 6.68 3 5.36 3 4 C2.34 4 1.68 4 1 4 C0.67 2.68 0.34 1.36 0 0 Z " fill="#A06613" transform="translate(362,55)"/>
<path d="M0 0 C-1.33934244 2.67868487 -2.51692397 2.74954078 -5.3125 3.6875 C-6.09238281 3.95949219 -6.87226563 4.23148438 -7.67578125 4.51171875 C-10.18274511 5.03839183 -11.60132343 4.8178554 -14 4 C-9.22642128 1.28608722 -5.65611463 -0.56561146 0 0 Z " fill="#A7681D" transform="translate(319,45)"/>
<path d="M0 0 C0.99 0 1.98 0 3 0 C1.68938409 4.23429756 0.05643741 8.07407404 -2 12 C-2.66666667 9.33333333 -3.33333333 6.66666667 -4 4 C-3.01 4.33 -2.02 4.66 -1 5 C-0.67 3.35 -0.34 1.7 0 0 Z " fill="#AC6915" transform="translate(373,149)"/>
<path d="M0 0 C0.33 0 0.66 0 1 0 C1.33266291 6.20970773 0.45029331 10.28264895 -2 16 C-3.49574876 13.00850247 -2.64805018 10.70118979 -2.125 7.4375 C-1.94195312 6.26058594 -1.75890625 5.08367187 -1.5703125 3.87109375 C-1 1 -1 1 0 0 Z " fill="#9C6321" transform="translate(350,129)"/>
<path d="M0 0 C1.72880982 -0.05449838 3.45812712 -0.09301688 5.1875 -0.125 C6.15042969 -0.14820312 7.11335938 -0.17140625 8.10546875 -0.1953125 C11.12812778 0.0086456 13.26769985 0.73125368 16 2 C15.67 2.99 15.34 3.98 15 5 C14.21625 4.505 13.4325 4.01 12.625 3.5 C7.95078158 1.56584065 3.98557619 1.73397123 -1 2 C-0.67 1.34 -0.34 0.68 0 0 Z " fill="#BB7C1F" transform="translate(325,67)"/>
<path d="M0 0 C4.75481646 0.57634139 7.97048212 2.55068521 12 5 C10.02 5.99 10.02 5.99 8 7 C8 6.34 8 5.68 8 5 C7.01 5 6.02 5 5 5 C5 4.34 5 3.68 5 3 C3.35 2.67 1.7 2.34 0 2 C0 1.34 0 0.68 0 0 Z " fill="#A96C17" transform="translate(347,46)"/>
<path d="M0 0 C0.66 0 1.32 0 2 0 C1.69201674 1.48011371 1.378482 2.95907325 1.0625 4.4375 C0.88847656 5.26121094 0.71445312 6.08492187 0.53515625 6.93359375 C0 9 0 9 -1 10 C-2.66617115 10.04063832 -4.33388095 10.042721 -6 10 C-5.566875 9.44570312 -5.13375 8.89140625 -4.6875 8.3203125 C-4.130625 7.59585938 -3.57375 6.87140625 -3 6.125 C-2.443125 5.40570313 -1.88625 4.68640625 -1.3125 3.9453125 C0.18643377 2.1147915 0.18643377 2.1147915 0 0 Z " fill="#996413" transform="translate(345,145)"/>
<path d="M0 0 C1.32 0 2.64 0 4 0 C4 1.98 4 3.96 4 6 C3.01 6 2.02 6 1 6 C0.34 5.01 -0.32 4.02 -1 3 C-0.67 2.01 -0.34 1.02 0 0 Z " fill="#D1780E" transform="translate(296,164)"/>
<path d="M0 0 C3.64775386 3.88309282 4.58525633 6.71201818 5 12 C1.35224614 8.11690718 0.41474367 5.28798182 0 0 Z " fill="#A2B3B5" transform="translate(226,154)"/>
<path d="M0 0 C-0.59861742 2.35171131 -1.26924352 4.6859378 -2 7 C-2.99 7.495 -2.99 7.495 -4 8 C-4 5.69 -4 3.38 -4 1 C-2 0 -2 0 0 0 Z " fill="#AD6F18" transform="translate(317,74)"/>
<path d="M0 0 C0.33 0 0.66 0 1 0 C1.33 1.98 1.66 3.96 2 6 C0.35 6.66 -1.3 7.32 -3 8 C-1.125 2.25 -1.125 2.25 0 0 Z " fill="#B67518" transform="translate(290,64)"/>
<path d="M0 0 C0.66 0.33 1.32 0.66 2 1 C0.68 3.64 -0.64 6.28 -2 9 C-2.33 9 -2.66 9 -3 9 C-2.25 2.25 -2.25 2.25 0 0 Z " fill="#BABDBF" transform="translate(444,255)"/>
<path d="M0 0 C0 3.61029169 -0.96092582 6.55806676 -2 10 C-2.66 10 -3.32 10 -4 10 C-3.52449439 8.51965236 -3.04448784 7.04074979 -2.5625 5.5625 C-2.29566406 4.73878906 -2.02882813 3.91507813 -1.75390625 3.06640625 C-1 1 -1 1 0 0 Z " fill="#A1A5A9" transform="translate(432,189)"/>
<path d="M0 0 C2.64 0.33 5.28 0.66 8 1 C8 1.99 8 2.98 8 4 C2.25 2.25 2.25 2.25 0 0 Z " fill="#C67B1A" transform="translate(299,171)"/>
<path d="M0 0 C4 4.5 4 4.5 4 9 C3.34 9 2.68 9 2 9 C0.50178941 5.62902617 0 3.79557881 0 0 Z " fill="#B9BCC0" transform="translate(195,91)"/>
<path d="M0 0 C2.475 0.495 2.475 0.495 5 1 C5 1.99 5 2.98 5 4 C3.35 3.67 1.7 3.34 0 3 C0 2.01 0 1.02 0 0 Z " fill="#D48613" transform="translate(356,52)"/>
<path d="" fill="#000000" transform="translate(0,0)"/>
<path d="" fill="#000000" transform="translate(0,0)"/>
<path d="" fill="#000000" transform="translate(0,0)"/>
<path d="" fill="#000000" transform="translate(0,0)"/>
<path d="" fill="#000000" transform="translate(0,0)"/>
<path d="" fill="#000000" transform="translate(0,0)"/>
<path d="" fill="#000000" transform="translate(0,0)"/>
<path d="" fill="#000000" transform="translate(0,0)"/>
<path d="" fill="#000000" transform="translate(0,0)"/>
<path d="" fill="#000000" transform="translate(0,0)"/>
<path d="" fill="#000000" transform="translate(0,0)"/>
<path d="" fill="#000000" transform="translate(0,0)"/>
<path d="" fill="#000000" transform="translate(0,0)"/>
<path d="" fill="#000000" transform="translate(0,0)"/>
<path d="" fill="#000000" transform="translate(0,0)"/>
<path d="" fill="#000000" transform="translate(0,0)"/>
<path d="" fill="#000000" transform="translate(0,0)"/>
<path d="" fill="#000000" transform="translate(0,0)"/>
<path d="" fill="#000000" transform="translate(0,0)"/>
<path d="" fill="#000000" transform="translate(0,0)"/>
<path d="" fill="#000000" transform="translate(0,0)"/>
<path d="" fill="#000000" transform="translate(0,0)"/>
<path d="" fill="#000001" transform="translate(0,0)"/>
<path d="" fill="#000000" transform="translate(0,0)"/>
<path d="" fill="#000000" transform="translate(0,0)"/>
<path d="" fill="#000000" transform="translate(0,0)"/>
<path d="" fill="#000000" transform="translate(0,0)"/>
<path d="" fill="#000000" transform="translate(0,0)"/>
<path d="" fill="#000000" transform="translate(0,0)"/>
<path d="" fill="#000000" transform="translate(0,0)"/>
<path d="" fill="#000000" transform="translate(0,0)"/>
<path d="" fill="#000000" transform="translate(0,0)"/>
<path d="" fill="#000000" transform="translate(0,0)"/>
<path d="" fill="#000000" transform="translate(0,0)"/>
<path d="" fill="#000000" transform="translate(0,0)"/>
<path d="" fill="#000000" transform="translate(0,0)"/>
<path d="" fill="#000000" transform="translate(0,0)"/>
<path d="" fill="#000000" transform="translate(0,0)"/>
<path d="" fill="#000000" transform="translate(0,0)"/>
<path d="" fill="#000000" transform="translate(0,0)"/>
<path d="" fill="#000000" transform="translate(0,0)"/>
<path d="" fill="#000000" transform="translate(0,0)"/>
<path d="" fill="#000000" transform="translate(0,0)"/>
<path d="" fill="#000000" transform="translate(0,0)"/>
<path d="" fill="#000000" transform="translate(0,0)"/>
<path d="" fill="#000000" transform="translate(0,0)"/>
<path d="" fill="#000000" transform="translate(0,0)"/>
<path d="" fill="#000000" transform="translate(0,0)"/>
<path d="" fill="#000000" transform="translate(0,0)"/>
<path d="" fill="#000000" transform="translate(0,0)"/>
<path d="" fill="#000000" transform="translate(0,0)"/>
<path d="" fill="#000000" transform="translate(0,0)"/>
<path d="" fill="#000000" transform="translate(0,0)"/>
<path d="" fill="#000000" transform="translate(0,0)"/>
<path d="" fill="#000000" transform="translate(0,0)"/>
<path d="" fill="#000000" transform="translate(0,0)"/>
<path d="" fill="#000000" transform="translate(0,0)"/>
<path d="" fill="#000000" transform="translate(0,0)"/>
<path d="" fill="#000000" transform="translate(0,0)"/>
<path d="" fill="#000000" transform="translate(0,0)"/>
<path d="" fill="#000000" transform="translate(0,0)"/>
<path d="" fill="#000000" transform="translate(0,0)"/>
<path d="" fill="#000000" transform="translate(0,0)"/>
<path d="" fill="#000000" transform="translate(0,0)"/>
<path d="" fill="#000000" transform="translate(0,0)"/>
<path d="" fill="#000000" transform="translate(0,0)"/>
<path d="" fill="#000000" transform="translate(0,0)"/>
<path d="" fill="#000000" transform="translate(0,0)"/>
<path d="" fill="#000000" transform="translate(0,0)"/>
<path d="" fill="#000000" transform="translate(0,0)"/>
<path d="" fill="#000000" transform="translate(0,0)"/>
<path d="" fill="#000000" transform="translate(0,0)"/>
<path d="" fill="#000000" transform="translate(0,0)"/>
<path d="" fill="#000000" transform="translate(0,0)"/>
<path d="" fill="#000000" transform="translate(0,0)"/>
<path d="" fill="#000000" transform="translate(0,0)"/>
<path d="" fill="#000000" transform="translate(0,0)"/>
<path d="" fill="#000000" transform="translate(0,0)"/>
</svg>
