<svg xmlns="http://www.w3.org/2000/svg" xmlns:xlink="http://www.w3.org/1999/xlink" width="256" zoomAndPan="magnify" viewBox="0 0 192 191.999996" height="256" preserveAspectRatio="xMidYMid meet" version="1.2"><defs><clipPath id="915a6d02a4"><path d="M 192 22.5 L 192 169.5 C 192 181.925781 181.925781 192 169.5 192 L 22.5 192 C 10.074219 192 0 181.925781 0 169.5 L 0 22.5 C 0 10.074219 10.074219 0 22.5 0 L 169.5 0 C 181.925781 0 192 10.074219 192 22.5 Z M 192 22.5 "/></clipPath><clipPath id="39ebef9cd7"><path d="M 7 119 L 186 119 L 186 185 L 7 185 Z M 7 119 "/></clipPath><clipPath id="f5b4994be9"><path d="M 8.164062 108.925781 L 187.902344 118.667969 L 184.003906 190.5625 L 4.269531 180.820312 Z M 8.164062 108.925781 "/></clipPath><clipPath id="1691992c95"><path d="M 8.164062 108.925781 L 187.902344 118.667969 L 184.003906 190.5625 L 4.269531 180.820312 Z M 8.164062 108.925781 "/></clipPath></defs><g id="06088f907f"><g clip-rule="nonzero" clip-path="url(#915a6d02a4)"><rect x="0" width="192" y="0" height="191.999996" style="fill:#ffffff;fill-opacity:1;stroke:none;"/></g><g clip-rule="nonzero" clip-path="url(#39ebef9cd7)"><g clip-rule="nonzero" clip-path="url(#f5b4994be9)"><g clip-rule="nonzero" clip-path="url(#1691992c95)"><path style=" stroke:none;fill-rule:nonzero;fill:#f6a61f;fill-opacity:1;" d="M 9.660156 130.851562 C 11.332031 132.800781 13.261719 134.582031 14.628906 136.722656 C 26.808594 155.777344 45.257812 166.027344 66.089844 172.152344 C 73.285156 174.269531 81.566406 174.550781 89.039062 173.480469 C 110.394531 170.421875 130.222656 162.78125 147.664062 149.816406 C 152.6875 146.078125 157.011719 141.398438 160.828125 135.847656 C 158.859375 136.46875 156.863281 137.023438 154.921875 137.726562 C 149.214844 139.800781 143.59375 142.171875 137.796875 143.933594 C 135.261719 144.707031 132.335938 144.53125 129.644531 144.253906 C 128.644531 144.152344 127.203125 142.613281 127.0625 141.578125 C 126.933594 140.625 128.09375 138.738281 129 138.511719 C 143.925781 134.757812 156.996094 126.839844 170.679688 120.28125 C 175.476562 117.984375 178.378906 118.851562 180.101562 123.496094 C 184.476562 135.296875 186.027344 147.582031 185.089844 160.152344 C 185.0625 160.570312 184.386719 160.941406 183.335938 162.035156 C 173.324219 157.644531 177.097656 146.875 172.542969 137.785156 C 171.160156 139.824219 170.324219 141.464844 169.125 142.773438 C 145.90625 168.074219 116.472656 180.535156 82.863281 183.957031 C 77.742188 184.476562 72.304688 183.867188 67.257812 182.730469 C 48.472656 178.484375 32.003906 169.636719 18.761719 155.601562 C 14.492188 151.082031 11.578125 145.199219 8.527344 139.671875 C 7.339844 137.523438 7.484375 134.644531 7.019531 132.097656 C 7.898438 131.683594 8.78125 131.269531 9.660156 130.851562 Z M 9.660156 130.851562 "/></g></g></g><g style="fill:#000000;fill-opacity:1;"><g transform="translate(41.695312, 127.314309)"><path style="stroke:none" d="M 40.15625 1.96875 C 33.550781 1.96875 27.820312 0.753906 22.96875 -1.671875 C 18.113281 -4.109375 14.378906 -7.675781 11.765625 -12.375 C 9.148438 -17.070312 7.84375 -22.722656 7.84375 -29.328125 C 7.84375 -35.421875 9.148438 -40.535156 11.765625 -44.671875 C 14.378906 -48.816406 18.425781 -52.210938 23.90625 -54.859375 C 29.382812 -57.503906 36.546875 -59.546875 45.390625 -60.984375 C 51.546875 -61.972656 56.226562 -63.054688 59.4375 -64.234375 C 62.644531 -65.421875 64.804688 -66.757812 65.921875 -68.25 C 67.046875 -69.75 67.609375 -71.648438 67.609375 -73.953125 C 67.609375 -77.253906 66.457031 -79.773438 64.15625 -81.515625 C 61.851562 -83.265625 58.023438 -84.140625 52.671875 -84.140625 C 46.941406 -84.140625 41.492188 -82.863281 36.328125 -80.3125 C 31.160156 -77.757812 26.675781 -74.394531 22.875 -70.21875 L 21.015625 -70.21875 L 10.171875 -86.5625 C 15.398438 -92.351562 21.78125 -96.867188 29.3125 -100.109375 C 36.851562 -103.347656 45.070312 -104.96875 53.96875 -104.96875 C 67.601562 -104.96875 77.472656 -102.070312 83.578125 -96.28125 C 89.679688 -90.488281 92.734375 -82.269531 92.734375 -71.625 L 92.734375 -26.890625 C 92.734375 -22.285156 94.753906 -19.984375 98.796875 -19.984375 C 100.359375 -19.984375 101.882812 -20.265625 103.375 -20.828125 L 104.6875 -20.453125 L 106.546875 -2.421875 C 105.117188 -1.492188 103.128906 -0.734375 100.578125 -0.140625 C 98.023438 0.453125 95.222656 0.75 92.171875 0.75 C 86.003906 0.75 81.191406 -0.429688 77.734375 -2.796875 C 74.285156 -5.160156 71.8125 -8.867188 70.3125 -13.921875 L 68.359375 -14.09375 C 63.316406 -3.382812 53.914062 1.96875 40.15625 1.96875 Z M 48.375 -17.375 C 54.351562 -17.375 59.128906 -19.378906 62.703125 -23.390625 C 66.285156 -27.410156 68.078125 -33 68.078125 -40.15625 L 68.078125 -50.609375 L 66.296875 -50.984375 C 64.742188 -49.742188 62.707031 -48.703125 60.1875 -47.859375 C 57.664062 -47.015625 54.039062 -46.191406 49.3125 -45.390625 C 43.707031 -44.453125 39.675781 -42.847656 37.21875 -40.578125 C 34.757812 -38.304688 33.53125 -35.082031 33.53125 -30.90625 C 33.53125 -26.488281 34.835938 -23.128906 37.453125 -20.828125 C 40.066406 -18.523438 43.707031 -17.375 48.375 -17.375 Z M 48.375 -17.375 "/></g></g></g></svg>